<svg xmlns="http://www.w3.org/2000/svg" viewBox="0 0 32 32"><path fill="#0072c6" d="M19.484 7.937v5.477l1.916 1.205a.076.076 0 00.066 0l8.4-5.86a1.7 1.7 0 00-.862-1.322 1.7 1.7 0 00-.96-.292H20.453a1.24 1.24 0 00-.97.792z"/><path fill="#0072c6" d="M19.484 15.457l1.747 1.2a.076.076 0 00.066 0c.014-.005 8.4-5.858 8.4-5.858a.6.6 0 00.169-.169v10.6a1.7 1.7 0 01-1.69 1.49h-8.7v-7.26z"/><path fill="#0072c6" d="M10.44 12.932a2.96 2.96 0 00-1.39-.327 3 3 0 00-1.4.327 2.38 2.38 0 00-.97.924 2.73 2.73 0 00-.354 1.418 2.86 2.86 0 00.338 1.418 2.35 2.35 0 00.946.924 2.85 2.85 0 00 1.382.327 2.93 2.93 0 001.4-.327 2.38 2.38 0 00.97-.924 2.73 2.73 0 00.353-1.418 2.88 2.88 0 00-.34-1.418 2.39 2.39 0 00-.936-.924z"/><path fill="#0072c6" d="M2.153 5.155v21.427L18.453 29V3zM12.58 17.57a3.72 3.72 0 01-1.63 1.467 4.9 4.9 0 01-2.3.527 4.73 4.73 0 01-2.233-.527 3.72 3.72 0 01-1.576-1.467 4.13 4.13 0 01-.57-2.2 4.26 4.26 0 01.553-2.169 3.77 3.77 0 011.576-1.5 4.56 4.56 0 012.203-.546 4.7 4.7 0 012.28.534 3.72 3.72 0 011.63 1.492 4.16 4.16 0 01.586 2.2 4.22 4.22 0 01-.52 2.189z"/></svg>